<svg id="Grupo_13" data-name="Grupo 13" xmlns="http://www.w3.org/2000/svg" width="18" height="18" viewBox="0 0 18 18">
  <path id="Retângulo_10" data-name="Retângulo 10" d="M3,2A1,1,0,0,0,2,3V15a1,1,0,0,0,1,1H15a1,1,0,0,0,1-1V3a1,1,0,0,0-1-1H3M3,0H15a3,3,0,0,1,3,3V15a3,3,0,0,1-3,3H3a3,3,0,0,1-3-3V3A3,3,0,0,1,3,0Z" />
  <path id="Linha_1" data-name="Linha 1" d="M0,7A1,1,0,0,1-1,6V0A1,1,0,0,1,0-1,1,1,0,0,1,1,0V6A1,1,0,0,1,0,7Z" transform="translate(5.5 7.5)" />
  <path id="Linha_3" data-name="Linha 3" d="M0,5A1,1,0,0,1-1,4V0A1,1,0,0,1,0-1,1,1,0,0,1,1,0V4A1,1,0,0,1,0,5Z" transform="translate(13.5 9.5)" />
  <path id="Linha_2" data-name="Linha 2" d="M0,10A1,1,0,0,1-1,9V0A1,1,0,0,1,0-1,1,1,0,0,1,1,0V9A1,1,0,0,1,0,10Z" transform="translate(9.5 4.5)" />
</svg>
